<svg xmlns="http://www.w3.org/2000/svg" aria-hidden="true" style="position:absolute;width:0;height:0;overflow:hidden">
  <defs>
    <symbol id="antenna" viewBox="0 0 70 70">
      <path fill="#212121" d="M67.316 48.338 48.847 29.733l2.05-10.096a4.64 4.64 0 0 0 1.659.318h.014a4.722 4.722 0 1 0-4.394-3.139l-10.85 1.324L19.628.349a1.163 1.163 0 0 0-.824-.35c-.306.002-.6.124-.817.339l-3.309 3.29a1.168 1.168 0 0 0 0 1.65l1.78 1.806a32.688 32.688 0 0 0 5.511 38.638c.093.089.202.162.32.213a6.768 6.768 0 0 0-.114 1.197v13.533h-14a5.84 5.84 0 0 0-5.833 5.833v2.333c0 .644.522 1.167 1.167 1.167h53.667c.644 0 1.167-.522 1.167-1.167v-2.333a5.84 5.84 0 0 0-5.833-5.833h-14v-5.998c2.193.46 4.428.695 6.669.7a32.485 32.485 0 0 0 15.4-3.901l1.79 1.8c.217.221.514.347.824.35.306-.002.6-.124.817-.339l3.309-3.29a1.168 1.168 0 0 0 0-1.65zM50.925 13.635a2.333 2.333 0 1 1 1.645 3.988h-.007a2.333 2.333 0 0 1-1.633-3.987h-.005zm-2.747 7.666-1.309 6.443-2.571-2.587 3.88-3.857zm-1.325-1.973-4.2 4.176-3.249-3.267 7.449-.909zM52.509 63a3.5 3.5 0 0 1 3.5 3.5v1.167H4.676V66.5a3.5 3.5 0 0 1 3.5-3.5h44.333zm-16.333-4.667v2.333H24.509v-2.333h11.667zM24.509 56v-8.867c0-2.83 2.617-5.133 5.833-5.133s5.833 2.303 5.833 5.133V56H24.508zm14-3.71v-5.157c0-4.117-3.663-7.467-8.167-7.467a8.31 8.31 0 0 0-7.177 3.907A30.339 30.339 0 0 1 18.181 8.82l40.692 40.925a30.233 30.233 0 0 1-20.363 2.544zm24.695-1.496L17.142 4.461l1.651-1.645 17.358 17.456c.008 0 .013.015.021.021L64.86 49.149l-1.656 1.645z" style="fill:var(--color1, #212121)"/>
      <path fill="#2196f3" d="M30.353 44.333h-.011a3.5 3.5 0 1 0-.01 7h.011a3.5 3.5 0 1 0 .01-7zm.816 4.328a1.165 1.165 0 0 1-1.988-.834 1.167 1.167 0 0 1 1.161-1.16 1.166 1.166 0 0 1 .816 1.994h.011z" style="fill:var(--color2, #2196f3)"/>
    </symbol>
    <symbol id="clock" viewBox="0 0 70 70">
      <path fill="#212121" d="M68.461 33.471C68.457 14.981 53.465-.004 34.975 0S1.5 14.996 1.504 33.486A33.478 33.478 0 0 0 24.8 65.371c.132.042.27.063.409.062.264 0 .522-.071.749-.205.295-.175.516-.452.619-.78l8.455-26.797a4.185 4.185 0 0 0-.043-8.369 4.132 4.132 0 0 0-1.794.419L22.026 18.53a1.395 1.395 0 0 0-1.972 1.973l11.163 11.176a4.104 4.104 0 0 0 1.173 5.051l-8.056 25.534C8.414 56.4.262 38.74 6.126 22.82S29.65-1.252 45.57 4.612s24.072 23.525 18.208 39.444a30.722 30.722 0 0 1-16.323 17.442l-.871-4.1a1.395 1.395 0 0 0-2.293-.752l-8.393 7.493a1.394 1.394 0 0 0 .505 2.372l10.716 3.42a1.394 1.394 0 0 0 1.791-1.619l-.856-4.023a33.369 33.369 0 0 0 20.407-30.82zm-33.478-1.394a1.396 1.396 0 1 1-.001 2.791 1.396 1.396 0 0 1 .001-2.791zm4.594 32.515 4.778-4.262 1.319 6.213-6.096-1.951z" style="fill:var(--color1, #212121)"/>
      <path fill="#2196f3" d="M33.588 6.967v2.79a1.394 1.394 0 1 0 2.79 0v-2.79a1.396 1.396 0 0 0-2.79 0zM8.479 32.076a1.395 1.395 0 1 0 0 2.79h2.79a1.394 1.394 0 1 0 0-2.79h-2.79zM61.487 34.866a1.394 1.394 0 1 0 0-2.79h-2.79a1.396 1.396 0 0 0 0 2.79h2.79z" style="fill:var(--color2, #2196f3)"/>
    </symbol>
    <symbol id="diagram" viewBox="0 0 70 70">
      <path fill="#2196f3" d="M32.65 32.735h2.332V43.23H32.65V32.735zM41.978 37.399h2.332v5.83h-2.332v-5.83zM23.321 40.898h2.332v2.332h-2.332v-2.332zM16.325 39.731h2.332v3.498h-2.332v-3.498z" style="fill:var(--color2, #2196f3)"/>
      <path fill="#212121" d="M3.498 61.886h55.971a3.498 3.498 0 0 0 3.498-3.498v-4.664a3.498 3.498 0 0 0-3.498-3.498h-1.166V21.147l6.623-6.274a3.517 3.517 0 0 0 4.07-5.616 3.52 3.52 0 0 0-5.704 3.947l-4.991 4.731v-2.69a3.498 3.498 0 0 0-3.498-3.498H8.161a3.498 3.498 0 0 0-3.498 3.498v34.982H3.497a3.498 3.498 0 0 0-3.498 3.498v4.664a3.498 3.498 0 0 0 3.498 3.498zM66.465 10.58a1.166 1.166 0 1 1 0 2.332 1.166 1.166 0 0 1 0-2.332zM6.996 15.244c0-.644.522-1.166 1.166-1.166h46.642c.644 0 1.166.522 1.166 1.166v4.897l-2.332 2.216v-4.781c0-.644-.522-1.166-1.166-1.166H10.494c-.644 0-1.166.522-1.166 1.166v29.151c0 .644.522 1.166 1.166 1.166h41.978c.644 0 1.166-.522 1.166-1.166V25.564l2.332-2.21v26.87H6.996V15.242zm10.495 15.159a3.496 3.496 0 0 0-1.795 6.506 3.499 3.499 0 0 0 4.218-.494l4.053 2.034a1.166 1.166 0 0 0 1.392-.268l8.616-9.693 8.47 6.347c.454.34 1.089.304 1.501-.086l7.361-6.973v17.787H11.661V18.744h39.646v5.82l-8.25 7.813-8.541-6.403a1.167 1.167 0 0 0-1.571.158L24.21 35.96l-3.265-1.633a3.16 3.16 0 0 0 .044-.423 3.498 3.498 0 0 0-3.498-3.498zm1.166 3.498a1.166 1.166 0 1 1-2.332 0 1.166 1.166 0 0 1 2.332 0zm6.996 18.657h11.661v1.166c0 .644-.522 1.166-1.166 1.166H26.82a1.166 1.166 0 0 1-1.166-1.166v-1.166zM2.332 53.724c0-.644.522-1.166 1.166-1.166h19.823v1.166a3.498 3.498 0 0 0 3.498 3.498h9.328a3.498 3.498 0 0 0 3.498-3.498v-1.166h19.823c.644 0 1.166.522 1.166 1.166v4.664c0 .644-.522 1.166-1.166 1.166H3.497a1.166 1.166 0 0 1-1.166-1.166v-4.664z" style="fill:var(--color1, #212121)"/>
    </symbol>
    <symbol id="astronaut" viewBox="0 0 70 70">
      <path fill="#2196f3" d="M69.943 9.896a1.169 1.169 0 0 0-.942-.793l-4.179-.608-1.87-3.787c-.392-.798-1.7-.798-2.092 0l-1.87 3.787-4.179.608a1.17 1.17 0 0 0-.943.793c-.136.422-.023.887.295 1.196l3.025 2.948-.714 4.163c-.075.437.105.88.463 1.141.363.264.836.296 1.23.089l3.738-1.966 3.738 1.966a1.164 1.164 0 0 0 1.23-.089c.359-.261.539-.703.463-1.141l-.714-4.163 3.025-2.948c.317-.31.431-.774.295-1.196zm-5.387 2.903c-.274.267-.4.654-.335 1.033l.418 2.437-2.189-1.15a1.161 1.161 0 0 0-1.088 0l-2.189 1.15.418-2.437a1.17 1.17 0 0 0-.335-1.033l-1.772-1.727 2.448-.356a1.17 1.17 0 0 0 .879-.638l1.094-2.217 1.094 2.217c.17.344.498.583.879.638l2.448.356-1.77 1.727zM57.167 44.892h-2.333v2.333h2.333v-2.333zM57.167 49.559h-2.333v2.333h2.333v-2.333zM59.5 47.226h-2.333v2.333H59.5v-2.333zM54.834 47.226h-2.333v2.333h2.333v-2.333zM49 57.726h-2.333v2.333H49v-2.333zM49 62.393h-2.333v2.333H49v-2.333zM51.334 60.059H49v2.333h2.334v-2.333zM46.667 60.059h-2.333v2.333h2.333v-2.333zM35 53.059h-2.333v2.333H35v-2.333zM35 57.726h-2.333v2.333H35v-2.333zM37.333 55.392H35v2.333h2.333v-2.333zM32.667 55.392h-2.333v2.333h2.333v-2.333zM12.833 13.392H10.5v2.333h2.333v-2.333zM12.833 18.059H10.5v2.333h2.333v-2.333zM15.166 15.725h-2.333v2.333h2.333v-2.333zM10.5 15.725H8.167v2.333H10.5v-2.333z" style="fill:var(--color2, #2196f3)"/>
      <path fill="#212121" d="M54.064 30.974a3.882 3.882 0 0 0-2.599-1.541 3.887 3.887 0 0 0-2.931.77l-2.74 2.1-4.151 3.1-2.97-1.183c5.297-2.377 8.999-7.674 8.999-13.825 0-8.363-6.831-15.167-15.228-15.167s-15.227 6.804-15.227 15.167c0 3.031.906 5.85 2.45 8.222l-6.046-.052h-.011c-.019 0-.034.009-.051.011a1.13 1.13 0 0 0-.339.068c-.028.011-.057.016-.084.029-.014.006-.028.007-.042.014l-7.072 3.492-.002.001-4.142 1.992a.954.954 0 0 0-.138.077A3.894 3.894 0 0 0 .431 39.27a3.884 3.884 0 0 0 2.31 1.945 3.886 3.886 0 0 0 3.015-.281l3.036-1.615 4.952-2.557 2.968-.017L4.808 48.592l-.004.002-2.928 2.917a3.606 3.606 0 0 0-1.072 2.576c0 .973.38 1.889 1.072 2.578a3.649 3.649 0 0 0 2.58 1.062c.936 0 1.869-.355 2.582-1.062l2.875-2.863 3.808-2.843 1.971 1.962-3.854 3.837-.004.002-2.928 2.917a3.606 3.606 0 0 0-1.072 2.576c0 .973.38 1.889 1.072 2.578.711.707 1.646 1.062 2.581 1.062s1.87-.355 2.582-1.062l7.616-7.583.002-.004 2.209-2.188-.008-.008c.014-.014.034-.019.048-.034l11.3-12.377 7.593 1.08c.055.008.11.012.164.012.141 0 .278-.034.409-.084.038-.014.072-.033.108-.051.042-.021.086-.033.126-.059l7.029-4.667c.026-.017.04-.046.064-.064.028-.022.063-.031.089-.056l2.781-2.605a3.891 3.891 0 0 0 .464-5.166zM4.66 38.872c-.379.203-.81.244-1.221.113a1.562 1.562 0 0 1-.464-2.756l2.874-1.383.982 2.871-2.17 1.154zm7.65-3.998-3.387 1.75-.96-2.807 4.434-2.189-.087 3.246zm33.03-14.482c0 2.009-.479 3.904-1.31 5.599l-9.147-4.154a4.075 4.075 0 0 0-1.724-3.036l3.203-10.632c5.201 1.654 8.979 6.507 8.979 12.223zm-25.788 0c0-7.076 5.784-12.834 12.894-12.834.553 0 1.094.047 1.63.114l-3.133 10.399c-.042-.001-.082-.013-.125-.013-2.259 0-4.096 1.832-4.096 4.083s1.838 4.084 4.096 4.084c1.519 0 2.832-.839 3.54-2.066l8.449 3.838c-2.351 3.164-6.114 5.228-10.361 5.228-7.11 0-12.894-5.758-12.894-12.834zm13.029 1.75c0 .965-.791 1.75-1.763 1.75s-1.763-.785-1.763-1.75.791-1.75 1.763-1.75 1.763.785 1.763 1.75zM5.392 55.007a1.33 1.33 0 0 1-1.869.001 1.297 1.297 0 0 1 0-1.847l2.105-2.097 1.862 1.854-2.098 2.088zm7.03 8.167a1.33 1.33 0 0 1-1.87.001 1.296 1.296 0 0 1-.385-.925c0-.348.136-.676.385-.922l2.106-2.098 1.863 1.854-2.099 2.089zm7.616-7.588-.004.002-3.861 3.85-1.863-1.854 3.857-3.839v-.001l.004-.002c.087-.087.142-.193.196-.296.015-.03.044-.056.057-.087.036-.09.042-.187.056-.281.007-.054.03-.104.03-.159 0-.078-.028-.154-.044-.231-.014-.07-.014-.141-.041-.209a1.148 1.148 0 0 0-.199-.301c-.022-.026-.03-.058-.055-.083h-.001l-.002-.005-3.515-3.5c-.037-.037-.085-.052-.127-.084a1.118 1.118 0 0 0-.19-.126 1.007 1.007 0 0 0-.204-.071 1.146 1.146 0 0 0-.225-.043 1.047 1.047 0 0 0-.209.011c-.078.009-.152.02-.228.044a1.022 1.022 0 0 0-.206.098c-.043.024-.092.033-.133.063l-3.879 2.896-1.971-1.962 5.248-5.22 9.539 9.381-2.029 2.01zm14.916-15.349c-.034-.005-.065.008-.099.006a1.124 1.124 0 0 0-.252.015 1.122 1.122 0 0 0-.192.047 1.083 1.083 0 0 0-.211.103c-.065.04-.125.082-.182.134-.028.024-.062.036-.087.064L23.654 51.862l-9.468-9.311 6.197-6.165a1.167 1.167 0 0 0-.831-1.993v-.001l-4.853.029.061-3.516 6.79.058a15.202 15.202 0 0 0 10.897 4.596c.957 0 1.89-.099 2.799-.268.087.07.174.141.283.186l5.271 2.1.723 3.596-6.568-.934zm8.84.39-.685-3.408 3.164-2.363 2.071 2.749-4.55 3.022zm8.211-6.193-1.833 1.717-2.037-2.704 1.819-1.394a1.608 1.608 0 0 1 1.188-.313c.422.059.796.28 1.05.622a1.562 1.562 0 0 1-.187 2.072z" style="fill:var(--color1, #212121)"/>
      <path fill="#212121" d="m29.755 40.565-4.688-4.667a1.165 1.165 0 0 0-1.646 0l-4.687 4.667c-.219.221-.343.517-.343.827s.122.608.343.827l4.687 4.667c.227.226.526.339.824.339s.596-.113.823-.339l4.688-4.667a1.168 1.168 0 0 0 0-1.654zm-5.511 3.848-3.033-3.021 3.033-3.021 3.034 3.021-3.034 3.021zM37.547 11.092l-.563 2.266c.155.039 3.801.988 3.801 4.701h2.333c0-4.413-3.644-6.487-5.571-6.966zM43.118 20.392h-2.333v2.333h2.333v-2.333z" style="fill:var(--color1, #212121)"/>
    </symbol>
  </defs>
</svg>